<svg id="visual" viewBox="0 0 900 600" width="900" height="600" xmlns="http://www.w3.org/2000/svg" xmlns:xlink="http://www.w3.org/1999/xlink" version="1.1"><rect x="0" y="0" width="900" height="600" fill="#f5f5f6"></rect><path d="M0 377L21.5 392.2C43 407.3 86 437.7 128.8 437.3C171.7 437 214.3 406 257.2 407.3C300 408.7 343 442.3 385.8 454.2C428.7 466 471.3 456 514.2 463.7C557 471.3 600 496.7 642.8 508.5C685.7 520.3 728.3 518.7 771.2 513.8C814 509 857 501 878.5 497L900 493L900 601L878.5 601C857 601 814 601 771.2 601C728.3 601 685.7 601 642.8 601C600 601 557 601 514.2 601C471.3 601 428.7 601 385.8 601C343 601 300 601 257.2 601C214.3 601 171.7 601 128.8 601C86 601 43 601 21.5 601L0 601Z" fill="#55679C" stroke-linecap="round" stroke-linejoin="miter"></path></svg>